<svg width="367" height="130" viewBox="0 0 367 130" fill="none" xmlns="http://www.w3.org/2000/svg">
<g filter="url(#filter0_d_16_554)">
<path d="M85.4659 27.1818V97H72.7159L42.3409 53.0568H41.8295V97H27.0682V27.1818H40.0227L70.1591 71.0909H70.7727V27.1818H85.4659ZM130.969 74.7045V44.6364H145.491V97H131.548V87.4886H131.003C129.821 90.5568 127.855 93.0227 125.105 94.8864C122.378 96.75 119.048 97.6818 115.116 97.6818C111.616 97.6818 108.537 96.8864 105.878 95.2955C103.219 93.7045 101.139 91.4432 99.6392 88.5114C98.1619 85.5795 97.4119 82.0682 97.3892 77.9773V44.6364H111.912V75.3864C111.935 78.4773 112.764 80.9205 114.401 82.7159C116.037 84.5114 118.23 85.4091 120.98 85.4091C122.73 85.4091 124.366 85.0114 125.889 84.2159C127.412 83.3977 128.639 82.1932 129.571 80.6023C130.526 79.0114 130.991 77.0455 130.969 74.7045ZM205.926 44.6364L187.619 97H171.256L152.949 44.6364H168.29L179.165 82.1023H179.71L190.551 44.6364H205.926Z" fill="#F75151"/>
<path d="M213.358 97V44.6364H227.881V97H213.358ZM220.653 37.8864C218.494 37.8864 216.642 37.1705 215.097 35.7386C213.574 34.2841 212.812 32.5455 212.812 30.5227C212.812 28.5227 213.574 26.8068 215.097 25.375C216.642 23.9205 218.494 23.1932 220.653 23.1932C222.813 23.1932 224.653 23.9205 226.176 25.375C227.722 26.8068 228.494 28.5227 228.494 30.5227C228.494 32.5455 227.722 34.2841 226.176 35.7386C224.653 37.1705 222.813 37.8864 220.653 37.8864Z" fill="#FFC01E"/>
<path d="M254.037 27.1818V97H239.514V27.1818H254.037ZM280.193 27.1818V97H265.67V27.1818H280.193ZM315.69 98.0227C310.304 98.0227 305.668 96.9318 301.781 94.75C297.918 92.5455 294.94 89.4318 292.849 85.4091C290.759 81.3636 289.713 76.5795 289.713 71.0568C289.713 65.6705 290.759 60.9432 292.849 56.875C294.94 52.8068 297.884 49.6364 301.679 47.3636C305.497 45.0909 309.974 43.9545 315.111 43.9545C318.565 43.9545 321.781 44.5114 324.759 45.625C327.759 46.7159 330.372 48.3636 332.599 50.5682C334.849 52.7727 336.599 55.5455 337.849 58.8864C339.099 62.2045 339.724 66.0909 339.724 70.5455V74.5341H295.509V65.5341H326.054C326.054 63.4432 325.599 61.5909 324.69 59.9773C323.781 58.3636 322.52 57.1023 320.906 56.1932C319.315 55.2614 317.463 54.7955 315.349 54.7955C313.145 54.7955 311.19 55.3068 309.486 56.3295C307.804 57.3295 306.486 58.6818 305.531 60.3864C304.577 62.0682 304.088 63.9432 304.065 66.0114V74.5682C304.065 77.1591 304.543 79.3977 305.497 81.2841C306.474 83.1705 307.849 84.625 309.622 85.6477C311.395 86.6705 313.497 87.1818 315.929 87.1818C317.543 87.1818 319.02 86.9545 320.361 86.5C321.702 86.0455 322.849 85.3636 323.804 84.4545C324.759 83.5455 325.486 82.4318 325.986 81.1136L339.418 82C338.736 85.2273 337.338 88.0455 335.224 90.4545C333.134 92.8409 330.429 94.7045 327.111 96.0455C323.815 97.3636 320.009 98.0227 315.69 98.0227Z" fill="#F65151"/>
</g>
<defs>
<filter id="filter0_d_16_554" x="0.0681152" y="0.193176" width="366.656" height="128.83" filterUnits="userSpaceOnUse" color-interpolation-filters="sRGB">
<feFlood flood-opacity="0" result="BackgroundImageFix"/>
<feColorMatrix in="SourceAlpha" type="matrix" values="0 0 0 0 0 0 0 0 0 0 0 0 0 0 0 0 0 0 127 0" result="hardAlpha"/>
<feOffset dy="4"/>
<feGaussianBlur stdDeviation="13.5"/>
<feComposite in2="hardAlpha" operator="out"/>
<feColorMatrix type="matrix" values="0 0 0 0 0 0 0 0 0 0 0 0 0 0 0 0 0 0 0.25 0"/>
<feBlend mode="normal" in2="BackgroundImageFix" result="effect1_dropShadow_16_554"/>
<feBlend mode="normal" in="SourceGraphic" in2="effect1_dropShadow_16_554" result="shape"/>
</filter>
</defs>
</svg>
